HIERARCHY
ROOT Hips
{
  OFFSET 51.8454 91.5981 3.71105
  CHANNELS 6 Xposition Yposition Zposition Zrotation Xrotation Yrotation
  JOINT spine
  {
    OFFSET 0 6.84637 0.3937
    CHANNELS 3 Zrotation Xrotation Yrotation
    JOINT spine1
    {
      OFFSET 0 9.49621 0
      CHANNELS 3 Zrotation Xrotation Yrotation
      JOINT spine2
      {
        OFFSET 0 9.09909 0
        CHANNELS 3 Zrotation Xrotation Yrotation
        JOINT Neck
        {
          OFFSET 0 23.3612 1.11378
          CHANNELS 3 Zrotation Xrotation Yrotation
          JOINT Head
          {
            OFFSET 0 7.05802 0
            CHANNELS 3 Zrotation Xrotation Yrotation
            End Site
            {
              OFFSET 0 17.0844 -5.63419
            }
          }
        }
        JOINT RightShoulder
        {
          OFFSET -3.83136 9.82631 -0.533491
          CHANNELS 3 Zrotation Xrotation Yrotation
          JOINT RightArm
          {
            OFFSET 0 12.8881 0
            CHANNELS 3 Zrotation Xrotation Yrotation
            JOINT RightArmRoll
            {
              OFFSET 0 6.50617 0
              CHANNELS 3 Zrotation Xrotation Yrotation
              JOINT RightForeArm
              {
                OFFSET 0 18.9501 0
                CHANNELS 3 Zrotation Xrotation Yrotation
                JOINT RightForeArmRoll
                {
                  OFFSET 0 7.30092 0
                  CHANNELS 3 Zrotation Xrotation Yrotation
                  JOINT RightHand
                  {
                    OFFSET 0 14.6514 0
                    CHANNELS 3 Zrotation Xrotation Yrotation
                    End Site
                    {
                      OFFSET 0 0 0
                    }
                  }
                }
              }
            }
          }
        }
        JOINT LeftShoulder
        {
          OFFSET 3.83136 9.82631 -0.533491
          CHANNELS 3 Zrotation Xrotation Yrotation
          JOINT LeftArm
          {
            OFFSET 0 12.8881 0
            CHANNELS 3 Zrotation Xrotation Yrotation
            JOINT LeftArmRoll
            {
              OFFSET 0 6.50617 0
              CHANNELS 3 Zrotation Xrotation Yrotation
              JOINT LeftForeArm
              {
                OFFSET 0 18.9501 0
                CHANNELS 3 Zrotation Xrotation Yrotation
                JOINT LeftForeArmRoll
                {
                  OFFSET 0 7.30093 0
                  CHANNELS 3 Zrotation Xrotation Yrotation
                  JOINT LeftHand
                  {
                    OFFSET 0 14.6514 0
                    CHANNELS 3 Zrotation Xrotation Yrotation
                    End Site
                    {
                      OFFSET 0 0 0
                    }
                  }
                }
              }
            }
          }
        }
      }
    }
  }
  JOINT RightUpLeg
  {
    OFFSET -6.06837 -1.11278 -0.933477
    CHANNELS 3 Zrotation Xrotation Yrotation
    JOINT RightUpLegRoll
    {
      OFFSET 0 17.1796 0
      CHANNELS 3 Zrotation Xrotation Yrotation
      JOINT RightLeg
      {
        OFFSET 0 -21.2743 0
        CHANNELS 3 Zrotation Xrotation Yrotation
        JOINT RightLegRoll
        {
          OFFSET 0 21.3439 0
          CHANNELS 3 Zrotation Xrotation Yrotation
          JOINT RightFoot
          {
            OFFSET 0 17.7652 0
            CHANNELS 3 Zrotation Xrotation Yrotation
            JOINT RightToeBase
            {
              OFFSET 0 14.8508 0
              CHANNELS 3 Zrotation Xrotation Yrotation
              End Site
              {
                OFFSET 0.0062947 7.19214 -0.829005
              }
            }
          }
        }
      }
    }
  }
  JOINT LeftUpLeg
  {
    OFFSET 6.06837 -1.11278 -0.933477
    CHANNELS 3 Zrotation Xrotation Yrotation
    JOINT LeftUpLegRoll
    {
      OFFSET 0 17.1797 0
      CHANNELS 3 Zrotation Xrotation Yrotation
      JOINT LeftLeg
      {
        OFFSET 0 21.2742 0
        CHANNELS 3 Zrotation Xrotation Yrotation
        JOINT LeftLegRoll
        {
          OFFSET 0 21.5412 0
          CHANNELS 3 Zrotation Xrotation Yrotation
          JOINT LeftFoot
          {
            OFFSET 0 17.5679 0
            CHANNELS 3 Zrotation Xrotation Yrotation
            JOINT LeftToeBase
            {
              OFFSET 0 14.8508 0
              CHANNELS 3 Zrotation Xrotation Yrotation
              End Site
              {
                OFFSET -0.0282102 7.19213 -0.829005
              }
            }
          }
        }
      }
    }
  }
}
MOTION
Frames: 6
Frame Time: 0.00208333
55.0678 91.5283 5.51591 0.718847 -2.19327 -4.76773 -0.0285861 -1.93099 -0.147027 -0.0649261 0.139132 -0.279683 -0.0614972 1.7842 -0.278608 -4.94533 26.8462 0.219948 2.59108 -7.43279 -1.43178 73.3769 5.59635 0.880201 101.091 3.63296 18.9419 1.97369e-006 2.10026e-006 2.04642e-006 7.48001 9.933 -1.82178 -6.67389e-006 5.60565e-006 -2.99999 8.02919 -4.95145 0.697663 -71.632 5.91425 -1.32318 -102.301 7.41824 -22.3579 -3.01987e-006 -5.51629e-007 3.26219e-006 -12.1009 4.23498 0.807526 1.728e-006 -2.51929e-007 3.00715 -8.02891 -4.95145 -0.697702 173.646 0.864104 2.32772 -180 7.01543e-015 178.906 177.688 4.64966 179.973 8.75559e-007 3.14676e-006 0.0397075 -18.7029 67.9418 19.4874 8.13649 25.2327 -3.48774 -175.861 -3.90244 0.167822 4.54188e-006 -4.6773e-006 -1.1627 -1.69689 -3.80669 0.0231259 -1.12726e-006 -1.61772e-006 -0.0349142 18.8006 68.0651 -19.5865 -8.13649 25.2327 3.48774 
55.0673 91.5283 5.50932 0.718939 -2.19192 -4.77724 -0.0303482 -1.93166 -0.147304 -0.0682183 0.137929 -0.281001 -0.0647826 1.783 -0.279877 -4.97668 26.8079 0.234688 2.59572 -7.39655 -1.42862 73.3526 5.57178 0.87317 101.095 3.64811 18.9995 1.97369e-006 2.10026e-006 2.04642e-006 7.43172 9.91887 -1.81847 -6.67389e-006 5.60565e-006 -2.99999 8.02919 -4.95145 0.697663 -71.6277 5.89807 -1.31639 -102.316 7.43637 -22.3543 -3.01987e-006 -5.51629e-007 3.26219e-006 -12.0949 4.23068 0.806795 1.728e-006 -2.51929e-007 3.00715 -8.02891 -4.95145 -0.697702 173.647 0.864233 2.32602 -180 7.01543e-015 178.906 177.69 4.64253 179.973 8.75559e-007 3.14676e-006 0.0397075 -18.7008 67.9393 19.4851 8.13649 25.2327 -3.48774 -175.861 -3.90275 0.169604 4.54188e-006 -4.6773e-006 -1.1627 -1.69462 -3.80746 0.0232544 -1.12726e-006 -1.61772e-006 -0.0349142 18.8005 68.0649 -19.5863 -8.13649 25.2327 3.48774 
55.0694 91.531 5.50883 0.719367 -2.19031 -4.78678 -0.0321885 -1.93235 -0.147574 -0.0716695 0.136672 -0.282375 -0.068227 1.78174 -0.2812 -5.00737 26.7696 0.249036 2.59968 -7.36005 -1.42569 73.3293 5.5475 0.866123 101.099 3.66352 19.0567 1.97369e-006 2.10026e-006 2.04642e-006 7.38373 9.90416 -1.81512 -6.67389e-006 5.60565e-006 -2.99999 8.02919 -4.95145 0.697663 -71.6226 5.88163 -1.30958 -102.332 7.45455 -22.3508 -3.01987e-006 -5.51629e-007 3.26219e-006 -12.0886 4.22636 0.806058 1.728e-006 -2.51929e-007 3.00715 -8.02891 -4.95145 -0.697702 173.647 0.864741 2.32454 -180 7.01543e-015 178.906 177.691 4.63542 179.972 8.75559e-007 3.14676e-006 0.0397075 -18.6987 67.9368 19.4828 8.13649 25.2327 -3.48774 -175.863 -3.90273 0.171724 4.54188e-006 -4.6773e-006 -1.1627 -1.69222 -3.8083 0.0233897 -1.12726e-006 -1.61772e-006 -0.0349142 18.8003 68.0647 -19.5861 -8.13649 25.2327 3.48774 
55.0617 91.5317 5.51331 0.72003 -2.18853 -4.79634 -0.0340836 -1.93307 -0.14784 -0.0752322 0.135379 -0.283789 -0.0717827 1.78045 -0.282561 -5.03758 26.7312 0.263108 2.60317 -7.32339 -1.42292 73.3067 5.52343 0.859064 101.104 3.67912 19.1136 1.97369e-006 2.10026e-006 2.04642e-006 7.33595 9.88906 -1.81175 -6.67389e-006 5.60565e-006 -2.99999 8.02919 -4.95145 0.697663 -71.6172 5.865 -1.30277 -102.348 7.47277 -22.3473 -3.01987e-006 -5.51629e-007 3.26219e-006 -12.0822 4.22202 0.805316 1.728e-006 -2.51929e-007 3.00715 -8.02891 -4.95145 -0.697702 173.647 0.865515 2.32322 -180 7.01543e-015 178.906 177.693 4.6283 179.972 8.75559e-007 3.14676e-006 0.0397075 -18.6965 67.9342 19.4805 8.13649 25.2327 -3.48774 -175.864 -3.90248 0.174081 4.54188e-006 -4.6773e-006 -1.1627 -1.68972 -3.80918 0.0235299 -1.12726e-006 -1.61772e-006 -0.0349142 18.8001 68.0645 -19.5859 -8.13649 25.2327 3.48774 
55.0572 91.5307 5.50916 0.720828 -2.18663 -4.80592 -0.0360099 -1.9338 -0.148103 -0.0788586 0.134065 -0.285225 -0.075402 1.77913 -0.283943 -5.06751 26.6927 0.277019 2.60637 -7.28661 -1.42025 73.2846 5.49949 0.851999 101.108 3.69481 19.1703 1.97369e-006 2.10026e-006 2.04642e-006 7.28828 9.87374 -1.80837 -6.67389e-006 5.60565e-006 -2.99999 8.02919 -4.95145 0.697663 -71.6115 5.84827 -1.29595 -102.365 7.49101 -22.3438 -3.01987e-006 -5.51629e-007 3.26219e-006 -12.0758 4.21768 0.804572 1.728e-006 -2.51929e-007 3.00715 -8.02891 -4.95145 -0.697702 173.646 0.86644 2.322 -180 7.01543e-015 178.906 177.695 4.62118 179.972 8.75559e-007 3.14676e-006 0.0397075 -18.6944 67.9316 19.4782 8.13649 25.2327 -3.48774 -175.866 -3.9021 0.176573 4.54188e-006 -4.6773e-006 -1.1627 -1.68718 -3.81008 0.0236728 -1.12726e-006 -1.61772e-006 -0.0349142 18.7999 68.0642 -19.5856 -8.13649 25.2327 3.48774 
55.049 91.5322 5.50663 0.72166 -2.18471 -4.8155 -0.0379441 -1.93453 -0.148366 -0.0825009 0.132746 -0.286666 -0.0790373 1.77782 -0.28533 -5.09736 26.6542 0.290881 2.60951 -7.24982 -1.4176 73.2625 5.47557 0.844932 101.113 3.71051 19.227 1.97369e-006 2.10026e-006 2.04642e-006 7.24065 9.85835 -1.80499 -6.67389e-006 5.60565e-006 -2.99999 8.02919 -4.95145 0.697663 -71.6057 5.83151 -1.28913 -102.381 7.50925 -22.3403 -3.01987e-006 -5.51629e-007 3.26219e-006 -12.0693 4.21334 0.803828 1.728e-006 -2.51929e-007 3.00715 -8.02891 -4.95145 -0.697702 173.646 0.867402 2.3208 -180 7.01543e-015 178.906 177.696 4.61409 179.972 8.75559e-007 3.14676e-006 0.0397075 -18.6922 67.929 19.4759 8.13649 25.2327 -3.48774 -175.868 -3.9017 0.179099 4.54188e-006 -4.6773e-006 -1.1627 -1.68462 -3.81099 0.0238164 -1.12726e-006 -1.61772e-006 -0.0349142 18.7997 68.064 -19.5854 -8.13649 25.2327 3.48774 
